<svg xmlns="http://www.w3.org/2000/svg" xmlns:xlink="http://www.w3.org/1999/xlink" width="100" height="100" viewBox="0 0 100 100"><g transform="translate(50 50) scale(0.69 0.69) rotate(180) translate(-50 -50)" style="fill:#ffffff"><svg fill="#ffffff" xmlns="http://www.w3.org/2000/svg" data-name="Layer 1" viewBox="0 0 100 100" x="0px" y="0px"><title>Media Player</title><path d="M92,50A42,42,0,1,1,50,8,42.08,42.08,0,0,1,92,50ZM12,50A38,38,0,1,0,50,12,38.07,38.07,0,0,0,12,50Z"></path><path d="M68.57,55a3.5,3.5,0,0,1-6.1,2.34L50,43.42,37.6,57.31a3.5,3.5,0,0,1-5.22-4.67l15-16.8A3.54,3.54,0,0,1,50,34.67a3.5,3.5,0,0,1,2.6,1.17l15.08,16.8A3.47,3.47,0,0,1,68.57,55Z"></path></svg></g></svg>