<svg height='100px' width='100px'  fill="#ff005a" xmlns="http://www.w3.org/2000/svg" xmlns:xlink="http://www.w3.org/1999/xlink" version="1.1" x="0px" y="0px" viewBox="0 0 512 512" style="enable-background:new 0 0 512 512;" xml:space="preserve"><g><path d="M53.3,287l191,179.3c3.3,3.1,7.5,4.6,11.6,4.6c4.2,0,8.4-1.5,11.6-4.6L458.7,287   c28.8-27.1,44.7-63.4,44.7-102.2s-15.9-75-44.7-102.2c-28.3-26.6-66.8-39.4-108.4-36.3C316.6,49,283.1,62.1,256.1,83   c-33.9-27.8-66-41.9-95.6-41.9c-40.5,0-78.6,14.8-107.1,41.6C24.5,109.8,8.6,146.1,8.6,184.9C8.6,223.7,24.5,259.9,53.3,287z    M76.6,107.5c22.2-20.9,52-32.4,83.9-32.4c23.9,0,53,14.8,84.2,42.9c6.5,5.9,16.5,5.8,22.9-0.2c23.1-21.4,54.1-35.1,85.2-37.5   c32-2.4,61.4,7.2,82.6,27.1c21.9,20.6,34,48.1,34,77.4s-12.1,56.8-34,77.4L256,430.6L76.6,262.2c-21.9-20.6-34-48.1-34-77.3   C42.6,155.6,54.7,128.1,76.6,107.5z"></path></g></svg>