<svg height='100px' width='100px'  fill="#ff8c00" xmlns="http://www.w3.org/2000/svg" xmlns:xlink="http://www.w3.org/1999/xlink" viewBox="0 0 43 43" version="1.1" x="0px" y="0px"><title>play-button@1x</title><desc>Created with Sketch.</desc><g stroke="none" stroke-width="1" fill="none" fill-rule="evenodd"><g transform="translate(-673.000000, -1790.000000)" fill="#ff8c00"><g transform="translate(0.000000, 1519.000000)"><g transform="translate(673.485714, 271.371429)"><path d="M21.2571429,42.5142857 C9.51714703,42.5142857 0,32.9971387 0,21.2571429 C0,9.51714703 9.51714703,0 21.2571429,0 C32.9971387,0 42.5142857,9.51714703 42.5142857,21.2571429 C42.5142857,32.9971387 32.9971387,42.5142857 21.2571429,42.5142857 Z M21.2571429,40.4571429 C31.8610101,40.4571429 40.4571429,31.8610101 40.4571429,21.2571429 C40.4571429,10.6532757 31.8610101,2.05714286 21.2571429,2.05714286 C10.6532757,2.05714286 2.05714286,10.6532757 2.05714286,21.2571429 C2.05714286,31.8610101 10.6532757,40.4571429 21.2571429,40.4571429 Z M16.0857143,12.3428571 L16.8285714,12.3428571 C17.3808562,12.3428571 17.8285714,12.7905724 17.8285714,13.3428571 L17.8285714,29.1714286 C17.8285714,29.7237133 17.3808562,30.1714286 16.8285714,30.1714286 L16.0857143,30.1714286 C15.5334295,30.1714286 15.0857143,29.7237133 15.0857143,29.1714286 L15.0857143,13.3428571 C15.0857143,12.7905724 15.5334295,12.3428571 16.0857143,12.3428571 Z M25.6857143,12.3428571 L26.4285714,12.3428571 C26.9808562,12.3428571 27.4285714,12.7905724 27.4285714,13.3428571 L27.4285714,29.1714286 C27.4285714,29.7237133 26.9808562,30.1714286 26.4285714,30.1714286 L25.6857143,30.1714286 C25.1334295,30.1714286 24.6857143,29.7237133 24.6857143,29.1714286 L24.6857143,13.3428571 C24.6857143,12.7905724 25.1334295,12.3428571 25.6857143,12.3428571 Z"></path></g></g></g></g></svg>