<svg height='100px' width='100px'  fill="#4a90e2" xmlns="http://www.w3.org/2000/svg" xmlns:xlink="http://www.w3.org/1999/xlink" viewBox="0 0 100 100" version="1.1" x="0px" y="0px"><title>Imported Layers</title><desc>Created with Sketch.</desc><g stroke="none" stroke-width="1" fill="none" fill-rule="evenodd"><g fill="#4a90e2"><g><path d="M50,100 C22.4291667,100 0,77.5708333 0,50 C0,22.4291667 22.4291667,0 50,0 C77.5708333,0 100,22.4291667 100,50 C100,77.5708333 77.5708333,100 50,100 L50,100 Z M50,3.33229167 C24.2677083,3.33229167 3.33229167,24.2677083 3.33229167,50 C3.33229167,75.7322917 24.2677083,96.6677083 50,96.6677083 C75.7322917,96.6677083 96.6677083,75.7322917 96.6677083,50 C96.6677083,24.2677083 75.7322917,3.33229167 50,3.33229167 L50,3.33229167 Z"></path><path d="M37.8833333,75.275 C36.8614583,75.275 35.8520833,75.0052083 34.9666667,74.49375 C33.16875,73.4552083 32.0510417,71.5197917 32.0510417,69.4427083 L32.0510417,30.5572917 C32.0510417,28.4802083 33.16875,26.5447917 34.9666667,25.50625 C36.7375,24.484375 39.0302083,24.484375 40.8,25.50625 L74.475,44.9489583 C76.2739583,45.9875 77.3916667,47.9229167 77.3916667,50 C77.3916667,52.0770833 76.2739583,54.0125 74.475,55.0510417 L40.8,74.49375 C39.9145833,75.0052083 38.90625,75.275 37.8833333,75.275 L37.8833333,75.275 Z M37.8833333,28.0583333 C37.4447917,28.0583333 37.0135417,28.1739583 36.634375,28.3927083 C35.8625,28.8375 35.384375,29.6666667 35.384375,30.5572917 L35.384375,69.4427083 C35.384375,70.3333333 35.8625,71.1625 36.6333333,71.6072917 C37.3927083,72.0447917 38.375,72.0447917 39.1322917,71.6072917 L72.809375,52.1645833 C73.5802083,51.71875 74.059375,50.890625 74.059375,50 C74.059375,49.1104167 73.5802083,48.28125 72.809375,47.8354167 L39.1322917,28.3927083 C38.753125,28.1739583 38.321875,28.0583333 37.8833333,28.0583333 L37.8833333,28.0583333 Z"></path></g></g></g></svg>